<?xml version="1.0" encoding="UTF-8" standalone="no"?>
<!-- Created with Inkscape (http://www.inkscape.org/) -->

<svg
   width="119.57927mm"
   height="60.587067mm"
   viewBox="0 0 119.57927 60.587067"
   version="1.1"
   id="svg1"
   xml:space="preserve"
   inkscape:version="1.4 (e7c3feb1, 2024-10-09)"
   sodipodi:docname="davids demoner logo.svg"
   xmlns:inkscape="http://www.inkscape.org/namespaces/inkscape"
   xmlns:sodipodi="http://sodipodi.sourceforge.net/DTD/sodipodi-0.dtd"
   xmlns="http://www.w3.org/2000/svg"
   xmlns:svg="http://www.w3.org/2000/svg"><sodipodi:namedview
     id="namedview1"
     pagecolor="#ffffff"
     bordercolor="#000000"
     borderopacity="0.25"
     inkscape:showpageshadow="2"
     inkscape:pageopacity="0.0"
     inkscape:pagecheckerboard="0"
     inkscape:deskcolor="#d1d1d1"
     inkscape:document-units="mm"
     inkscape:zoom="0.6356671"
     inkscape:cx="350.81256"
     inkscape:cy="874.67167"
     inkscape:window-width="1680"
     inkscape:window-height="997"
     inkscape:window-x="0"
     inkscape:window-y="473"
     inkscape:window-maximized="1"
     inkscape:current-layer="svg1"><inkscape:page
       x="0"
       y="0"
       width="119.57927"
       height="60.587067"
       id="page2"
       margin="0"
       bleed="0" /></sodipodi:namedview><defs
     id="defs1" /><path
     style="font-weight:bold;font-stretch:condensed;font-size:85.3333px;line-height:0.9;font-family:'Nodesto Caps Condensed';-inkscape-font-specification:'Nodesto Caps Condensed,  Bold Condensed';text-align:center;text-anchor:middle;white-space:pre;stroke-width:0.434834"
     d="m 16.958518,0.09058395 h 6.03332 q 2.482176,0.217416 4.457044,1.93863705 3.007602,3.043833 3.007602,10.381655 v 0.362361 q 0,10.381655 -4.783173,12.918185 -2.210405,0.996496 -4.402689,0.996496 -0.616016,-0.07247 -0.978376,-0.07247 h -0.217417 q -5.091179,0 -5.091179,-0.797194 v -0.07247 q 0,-0.76096 1.050846,-0.905903 0.144947,-0.181182 0.253655,-0.579782 L 16.215681,23.44479 V 2.337227 q 0,-0.579778 -1.105205,-0.887787 L 14.983653,0.92401695 q 0,-0.833433 1.974869,-0.833433 z M 21.614863,4.438922 v 17.955011 q -0.01814,-0.199298 -0.308007,-0.199298 h 0.579778 q 3.025717,0 3.025717,-7.82701 v -3.116307 q 0,-6.812396 -2.663357,-6.812396 z M 35.946258,0.09058395 h 7.3197 q 0.88778,0 0.88778,0.797198 0,0.36236005 -0.72471,0.86966705 v 0 0 q 0,0.09059 0.1087,0.271772 -0.1087,0.235532 -0.1087,0.217417 2.971358,19.621872 3.533018,22.738179 0.23554,0.326126 0.88779,0.326126 l 0.14494,0.706605 v 0.09059 q 0,0.30801 -0.54355,0.579781 h -6.214488 q -0.41672,0 -0.67037,-0.507308 v -0.36236 q 0,-0.38048 0.7972,-0.67037 0,0.03622 0.14494,-0.199298 -0.14494,-2.246643 -0.16307,-2.319113 h 0.28989 q -0.25365,0.181178 -2.06546,0.434835 -1.25014,-0.163063 -2.24663,-0.434835 0.27177,0 0.0906,2.409702 0,0.181183 0.81531,0.344245 l 0.12683,0.634132 v 0.09059 q 0,0.30801 -0.54355,0.579781 h -5.852136 q -0.416713,0 -0.67037,-0.507308 V 25.65519 q 0.869669,-0.561663 0.869669,-0.652252 0.65225,-3.388082 3.623614,-22.973715 V 1.684978 q 0,-0.01814 -0.72472,-0.489188 V 0.81530995 q 0,-0.724724 0.887783,-0.724724 z m 3.84103,5.29048105 q -0.0543,0.217416 -1.48568,12.809476 0.27177,0.163063 1.19579,0.163063 h 0.43484 q 0.65224,0 0.83342,-0.181183 L 39.225628,5.381065 Z M 48.375256,-5.0442751e-6 h 6.50439 q 0.41671,0 0.67036,0.5073079942751 v 0.34424 q 0,0.38048005 -0.86966,0.68849005 l -0.0725,0.217416 q 0,0.434834 2.21041,18.552907 h -0.54355 L 58.557586,2.10169 V 1.848038 q 0,-0.398598 -1.0146,-0.65225 V 0.57977095 q 0,-0.308005 0.54353,-0.5797759942751 h 6.14204 q 0.41671,0 0.67037,0.5073079942751 v 0.398594 q -0.18119,0.41671905 -0.97838,0.68849005 -0.23554,0.199298 -0.54355,2.971364 l -3.49678,21.796041 -0.48919,0.326126 h -5.59849 q -0.7066,0 -1.32262,-4.493283 Q 49.353606,3.859146 48.936896,1.666856 48.791946,1.467559 47.831686,1.177668 V 0.57977095 q 0,-0.308005 0.54355,-0.5797759942751 z m 17.61077,0 h 6.23261 q 0.41672,0 0.67037,0.5073079942751 V 1.141434 q -0.99649,0.489188 -1.03273,0.561662 -0.21742,0.760959 -0.16306,0.760959 l 0.0362,0.34424 v 21.687334 q 0.14494,0.815314 0.94215,0.815314 l 0.21741,0.434834 v 0.36236 q 0,0.30801 -0.54355,0.579781 h -6.7218 q -0.41672,0 -0.67037,-0.507308 v -0.144943 q 0,-0.742844 0.96026,-0.905907 0.34424,-0.271771 0.34424,-1.268262 V 2.681472 q 0,-1.014616 -0.52542,-1.232032 -0.77908,0 -0.77908,-0.72472105 0,-0.7247239942751 1.03274,-0.7247239942751 z M 76.766276,0.09058495 h 6.03332 q 2.48217,0.217416 4.45704,1.93863705 3.00761,3.043833 3.00761,10.381655 v 0.362361 q 0,10.381655 -4.78318,12.918185 -2.21041,0.996496 -4.40269,0.996496 -0.61602,-0.07247 -0.97837,-0.07247 h -0.21743 q -5.09117,0 -5.09117,-0.797194 v -0.07247 q 0,-0.76096 1.05084,-0.905903 0.14495,-0.181182 0.25366,-0.579782 l -0.0725,-0.815309 V 2.337227 q 0,-0.579778 -1.1052,-0.887787 l -0.12682,-0.52542305 q 0,-0.833433 1.97487,-0.833433 z m 4.65634,4.34833805 v 17.955009 q -0.0181,-0.199298 -0.308,-0.199298 h 0.57977 q 3.02572,0 3.02572,-7.82701 v -3.116307 q 0,-6.812396 -2.66335,-6.812396 z M 98.562316,-4.0442751e-6 q 0.308,0 2.971364,0.4348339942751 0.86967,-0.144944 1.41321,-0.144944 l 0.86967,5.03682505 q -0.52542,0.452949 -1.64875,0.452949 -0.72472,-1.503799 -3.025714,-1.503799 -1.5038,0 -1.72122,1.938633 v 0.126828 q 0,1.576273 1.64874,3.333724 5.091184,5.72531 5.091184,9.185862 v 0.634136 q 0,5.018705 -4.185274,6.721802 -1.46756,0.471073 -2.64524,0.471073 -0.52542,0 -3.22502,-0.434834 -0.0543,0 -1.35885,0.108708 -0.36237,-1.974872 -0.83344,-5.870258 0.92403,-0.36236 1.66687,-0.36236 0.50731,2.210405 2.88077,2.210405 h 0.36236 q 1.48569,0 2.01111,-1.684982 0.0725,-0.434834 0.0725,-0.869668 0,-2.699592 -3.09819,-5.834019 -3.78667,-4.239626 -3.78667,-7.609589 0,-3.786677 3.18877,-5.65284005 1.5944,-0.6884859942751 3.35185,-0.6884859942751 z M 1.9748716,33.844738 h 6.033321 q 2.4821744,0.21742 4.4570424,1.93864 3.007602,3.04383 3.007602,10.38165 v 0.36237 q 0,10.38165 -4.783172,12.91819 -2.2104044,0.99649 -4.4026884,0.99649 -0.616017,-0.0725 -0.978377,-0.0725 h -0.217416 q -5.0911800732311,0 -5.0911800732311,-0.7972 v -0.0725 q 0,-0.76096 1.0508460732311,-0.90591 0.144947,-0.18117 0.253656,-0.57977 l -0.07247,-0.81532 v -21.10749 q 0,-0.57979 -1.10520107,-0.88779 L 1.5267689e-6,34.678178 q 0,-0.83344 1.9748680732311,-0.83344 z m 4.656345,4.34835 v 17.955 q -0.01814,-0.1993 -0.308006,-0.1993 h 0.579777 q 3.025719,0 3.025719,-7.82701 v -3.1163 q 0,-6.81239 -2.663354,-6.81239 z m 22.5932344,-4.36647 q 0.724726,3.36997 1.050851,5.41731 -0.616017,0.18119 -0.616017,0.34424 -0.797194,0 -1.540033,-1.03272 -0.163063,-0.12683 -0.36236,-0.21743 l -0.77908,0.0725 h -3.243134 l -0.181183,-0.0181 0.09059,-0.1993 v 5.47166 h 2.935125 q 1.232032,-0.0543 1.232032,-0.88779 l 0.507303,-0.34424 h 0.525423 q 0.416719,0 0.670371,0.50731 v 5.76154 q 0,0.30801 -0.543542,0.57978 h -0.489189 q -0.489188,0 -0.833429,-1.03272 -0.271771,-0.19931 -0.76096,-0.19931 h -3.170665 v 7.80889 h 3.750443 q 0.797194,0 1.521919,-1.25015 1.014611,0 1.41321,0.57978 -0.742845,4.31211 -1.123324,5.39919 -0.960257,-0.36236 -1.521914,-0.36236 h -9.928703 q -0.416715,0 -0.670367,-0.50731 v -0.36236 q 0,-0.34424 0.924022,-0.7066 0.235532,-0.38048 0.235532,-0.68849 v -21.7961 q 0,-0.63414 -0.978376,-0.88779 l -0.181178,-0.36236 v -0.36236 q 0,-0.30801 0.543543,-0.57978 h 9.946821 q 1.050846,-0.14495 1.576268,-0.14495 z m 3.315609,-0.0725 h 5.779668 q 0.52542,0 0.94214,0.54355 l -0.12683,0.25365 v 0.28989 q 0,1.17767 1.86616,6.08767 1.3045,4.11281 1.32262,4.16716 -0.21742,0.21741 1.64874,-6.05143 1.14144,-3.06196 1.14144,-4.2034 v -0.28989 q 0,-0.7972 0.887788,-0.7972 h 5.36295 q 0.88779,0 0.88779,0.7972 0,0.48919 -0.97838,0.9059 -0.25366,0.41672 -0.25366,0.68849 v 21.97723 q 0,0.72472 1.05085,1.0146 l 0.18119,0.36237 v 0.36236 q 0,0.30801 -0.54355,0.57978 h -6.649338 q -0.41671,0 -0.67036,-0.5073 v -0.52543 l 0.97838,-0.65226 q 0.18118,-0.23553 0.18118,-0.56165 v -13.17185 q 0.634128,0 -2.08358,8.66045 -0.27177,1.23202 -1.08708,1.23202 h -0.65226 q -0.99649,0 -1.37697,-2.10169 -0.12682,-0.12682 -2.59089,-7.79078 h 0.65226 v 13.17185 q 0,0.68849 0.68848,0.81531 0.54354,0.18118 0.54354,0.77908 v 0.0724 q 0,0.30801 -0.54354,0.57978 h -6.431914 q -0.416714,0 -0.670366,-0.5073 v -0.52543 l 1.014611,-0.67037 q 0.07247,-0.0724 0.217417,-0.50731 l -0.07247,-0.83343 v -20.65453 q 0,-0.32613 0.07247,-0.83344 0,-0.5073 -1.232028,-0.88778 v -0.68849 q 0,-0.308 0.543542,-0.57978 z m 29.025146,0 q 4.51141,0 6.23262,5.59849 0.81532,3.2069 0.81532,6.46816 v 1.6125 q 0,13.00878 -7.12041,13.00878 -7.1204,0 -7.1204,-13.96903 0,-10.27296 4.96435,-12.3203 1.12332,-0.3986 2.22852,-0.3986 z m -1.86616,10.70779 q 0,-0.23554 0.10871,-0.23554 -0.10871,1.10521 -0.10871,1.44945 v 1.97487 q 0,0.3986 0.0724,1.21391 -0.0724,0.16306 -0.0724,0.16306 0.28989,5.00059 0.77908,5.97897 0.45296,1.06897 0.79719,1.06897 h 0.57978 q 1.12333,0 1.43133,-6.03333 0,0.28989 -0.0725,0.28989 0,-0.43484 0.0725,-0.81531 0,-0.86967 0.0725,-2.97137 -0.0725,-1.75745 -0.0725,-2.609 l -0.1087,-0.21741 0.1087,-0.1993 q -0.27177,-3.64173 -0.76096,-4.74694 -0.43484,-0.65225 -0.83343,-0.79719 h -0.12683 q -1.39508,0 -1.72122,4.45705 0,0.65224 -0.14494,2.02922 z m 11.07015,-10.70779 h 5.19988 q 0.88779,0 0.88779,1.12332 0.32613,1.35886 2.8083,6.95734 1.01462,2.46407 0.9965,2.44595 h -0.57978 v -8.40679 q 0,-0.47107 -1.23203,-0.96026 v -0.36236 q 0,-0.7972 0.88778,-0.7972 h 5.79779 q 0.88778,0 0.88778,0.7972 0,0.45295 -0.99649,0.94214 -0.23554,0.30801 -0.23554,0.5979 v 22.1584 q 0,0.65225 0.52543,0.88778 0.41671,0 0.41671,0.43484 v 0.28989 q 0,0.30801 -0.54353,0.57978 h -4.74695 l -0.76095,-0.14495 v -6.73992 q -4.02221,-9.34893 -4.04033,-9.34893 h 0.52543 v 14.11399 q 0,0.5073 1.05084,0.9059 0.18118,0.32613 0.18118,0.56166 v 0.0724 q 0,0.30801 -0.54354,0.57978 h -6.35944 q -0.41673,0 -0.67037,-0.5073 v -0.52543 l 1.01461,-0.7066 q 0.14494,-0.10872 0.14494,-0.45296 v -22.23081 q 0,-0.63413 -1.15955,-1.1052 v -0.57978 q 0,-0.308 0.54354,-0.57978 z m 29.623044,0.0725 q 0.72472,3.36997 1.05085,5.41731 -0.61602,0.18119 -0.61602,0.34424 -0.79719,0 -1.540034,-1.03272 -0.16306,-0.12683 -0.36236,-0.21743 l -0.77908,0.0725 h -3.24314 l -0.18118,-0.0181 0.0906,-0.1993 v 5.47166 h 2.93514 q 1.23202,-0.0543 1.23202,-0.88779 l 0.5073,-0.34424 h 0.525434 q 0.41672,0 0.67037,0.50731 v 5.76154 q 0,0.30801 -0.54354,0.57978 h -0.489194 q -0.48919,0 -0.83343,-1.03272 -0.27177,-0.19931 -0.76096,-0.19931 h -3.17066 v 7.80889 h 3.75044 q 0.79719,0 1.521914,-1.25015 1.01462,0 1.41322,0.57978 -0.74285,4.31211 -1.12333,5.39919 -0.960264,-0.36236 -1.521914,-0.36236 h -9.92871 q -0.41671,0 -0.67037,-0.50731 v -0.36236 q 0,-0.34424 0.92403,-0.7066 0.23553,-0.38048 0.23553,-0.68849 v -21.7961 q 0,-0.63414 -0.97837,-0.88779 l -0.18119,-0.36236 v -0.36236 q 0,-0.30801 0.54355,-0.57978 h 9.94682 q 1.05084,-0.14495 1.576274,-0.14495 z m 9.96494,-0.0725 q 5.58037,0 7.60959,4.13093 0.74284,1.99299 0.74284,3.89538 0,5.29048 -2.97136,6.8124 v -0.14494 q 0.72472,3.96784 2.08358,8.95032 0.45295,1.61251 1.43133,1.61251 l 0.32612,0.48918 v 0.36236 q 0,0.30801 -0.54354,0.57978 h -5.45354 q -1.06897,-0.18118 -1.06897,-1.73933 -1.15955,-4.40269 -1.52192,-8.95033 v 0.27177 h -1.05085 v 7.93572 q 0,0.92403 1.03274,1.19579 0.19929,0.34425 0.19929,0.57978 v 0.12683 q 0,0.30801 -0.54354,0.57978 h -6.79428 q -0.41671,0 -0.67037,-0.5073 v -0.14495 q 0,-0.56166 1.03274,-0.97838 0.27177,-0.25365 0.27177,-1.05085 v -21.10756 q 0,-1.19579 -0.96026,-1.19579 l -0.34425,-0.47107 v -0.16306 q 0,-0.77908 1.21392,-0.77908 1.54004,-0.21742 5.97896,-0.28989 z m -0.41672,4.23964 v 7.99007 q -0.0181,-0.19931 -0.32612,-0.19931 l 0.76096,-0.0724 0.52542,0.0724 q 1.06897,0 1.84804,-1.63062 0.27178,-1.1052 0.27178,-1.44945 v -1.46756 q -0.36237,-2.95324 -2.53653,-2.95324 0,-0.0725 -0.1993,-0.0725 h -0.61602 q 0.27177,-0.0362 0.27177,-0.21741 z"
     id="text8"
     aria-label="DAVIDS&#10;DEMONER"
     inkscape:export-filename="text8.svg"
     inkscape:export-xdpi="96"
     inkscape:export-ydpi="96" /></svg>
