<?xml version="1.0" encoding="UTF-8" standalone="no"?>
<!-- Created with Inkscape (http://www.inkscape.org/) -->

<svg
   width="168.99385mm"
   height="136.90703mm"
   viewBox="0 0 168.99385 136.90703"
   version="1.1"
   id="svg1"
   xml:space="preserve"
   inkscape:version="1.4 (e7c3feb1, 2024-10-09)"
   sodipodi:docname="davids demoner logo.svg"
   xmlns:inkscape="http://www.inkscape.org/namespaces/inkscape"
   xmlns:sodipodi="http://sodipodi.sourceforge.net/DTD/sodipodi-0.dtd"
   xmlns="http://www.w3.org/2000/svg"
   xmlns:svg="http://www.w3.org/2000/svg"><sodipodi:namedview
     id="namedview1"
     pagecolor="#ffffff"
     bordercolor="#000000"
     borderopacity="0.25"
     inkscape:showpageshadow="2"
     inkscape:pageopacity="0.0"
     inkscape:pagecheckerboard="0"
     inkscape:deskcolor="#d1d1d1"
     inkscape:document-units="mm"
     inkscape:zoom="0.6356671"
     inkscape:cx="350.81256"
     inkscape:cy="874.67167"
     inkscape:window-width="1680"
     inkscape:window-height="997"
     inkscape:window-x="0"
     inkscape:window-y="473"
     inkscape:window-maximized="1"
     inkscape:current-layer="svg1"><inkscape:page
       x="0"
       y="-3.5088132e-13"
       width="168.99385"
       height="136.90701"
       id="page2"
       margin="0"
       bleed="0" /></sodipodi:namedview><defs
     id="defs1"><inkscape:path-effect
       effect="fillet_chamfer"
       id="path-effect28"
       is_visible="true"
       lpeversion="1"
       nodesatellites_param="F,0,0,1,0,0,0,1 @ F,0,0,1,0,0,0,1 @ F,0,0,1,0,0,0,1 @ F,0,0,1,0,0,0,1 @ F,0,0,1,0,0,0,1 @ F,0,0,1,0,0,0,1 @ F,0,0,1,0,0,0,1 @ F,0,0,1,0,0,0,1 @ F,0,0,1,0,0,0,1 @ F,0,0,1,0,0,0,1 @ F,0,0,1,0,0,0,1 @ F,0,0,1,0,0,0,1 @ F,0,0,1,0,0,0,1 @ F,0,0,1,0,0,0,1 @ F,0,0,1,0,0,0,1 @ F,0,0,1,0,0,0,1 @ F,0,0,1,0,0,0,1 @ F,0,0,1,0,0,0,1 @ F,0,0,1,0,0,0,1 @ F,0,0,1,0,0,0,1 @ F,0,0,1,0,0,0,1 @ F,0,0,1,0,0,0,1 @ F,0,0,1,0,0,0,1 @ F,0,0,1,0,0,0,1 @ F,0,0,1,0,0,0,1 @ F,0,0,1,0,0,0,1 @ F,0,0,1,0,0,0,1 @ F,0,0,1,0,0,0,1 @ F,0,0,1,0,0,0,1 @ F,0,0,1,0,0,0,1 @ F,0,0,1,0,0,0,1 @ F,0,0,1,0,0,0,1 @ F,0,0,1,0,0,0,1 @ F,0,0,1,0,0,0,1 @ F,0,0,1,0,0,0,1 @ F,0,0,1,0,0,0,1 @ F,0,0,1,0,0,0,1 @ F,0,0,1,0,0,0,1 @ F,0,0,1,0,0,0,1 @ F,0,0,1,0,0,0,1 @ F,0,0,1,0,0,0,1 @ F,0,0,1,0,0,0,1 @ F,0,0,1,0,0,0,1 @ F,0,0,1,0,0,0,1 @ F,0,0,1,0,0,0,1 @ F,0,0,1,0,0,0,1 @ F,0,0,1,0,0,0,1 @ F,0,0,1,0,0,0,1 @ F,0,0,1,0,0,0,1 @ F,0,0,1,0,0,0,1 @ F,0,0,1,0,0,0,1 @ F,0,0,1,0,0,0,1 @ F,0,0,1,0,0,0,1 @ F,0,0,1,0,0,0,1 @ F,0,0,1,0,0,0,1 @ F,0,0,1,0,0,0,1 @ F,0,0,1,0,0,0,1 @ F,0,0,1,0,0,0,1 @ F,0,0,1,0,0,0,1 @ F,0,0,1,0,0,0,1 @ F,0,0,1,0,0,0,1 @ F,0,0,1,0,0,0,1 @ F,0,0,1,0,0,0,1 @ F,0,0,1,0,0,0,1 @ F,0,0,1,0,0,0,1 @ F,0,0,1,0,0,0,1 @ F,0,0,1,0,0,0,1 @ F,0,0,1,0,0,0,1 @ F,0,0,1,0,0,0,1 @ F,0,0,1,0,0,0,1 @ F,0,0,1,0,0,0,1 @ F,0,0,1,0,0,0,1 @ F,0,0,1,0,0,0,1 @ F,0,0,1,0,0,0,1 @ F,0,0,1,0,0,0,1 @ F,0,0,1,0,0,0,1 @ F,0,0,1,0,0,0,1 @ F,0,0,1,0,0,0,1 @ F,0,0,1,0,0,0,1 | F,0,0,1,0,0,0,1 @ F,0,0,1,0,0,0,1 @ F,0,0,1,0,0,0,1 @ F,0,0,1,0,0,0,1"
       radius="0"
       unit="px"
       method="auto"
       mode="F"
       chamfer_steps="1"
       flexible="false"
       use_knot_distance="true"
       apply_no_radius="true"
       apply_with_radius="true"
       only_selected="false"
       hide_knots="false" /></defs><path
     id="path3"
     style="display:inline;opacity:1;fill:#000000;stroke-width:0.264583"
     d="m 109.34733,187.11079 c -0.66786,0.73609 -0.41144,1.94914 -0.69027,2.93888 -0.36215,2.16419 -0.98657,4.27585 -1.04716,6.48319 -0.31731,0.98454 -1.38224,1.43447 -1.92226,2.25785 0.25501,0.56957 1.62003,0.58696 1.40461,1.36233 0.1314,1.03368 0.29188,2.24856 -0.65264,2.96861 -1.21281,0.26501 -1.95301,-0.89913 -2.75941,-1.57557 -0.21133,-0.73529 -0.77415,-2.31291 -1.69704,-1.89427 -0.43928,0.7837 -0.81401,1.71864 -1.43147,2.37428 -0.755396,0.20127 -1.558957,2.27623 -0.23071,1.89265 1.19115,0.0337 0.61287,1.64195 1.29201,2.26251 -0.22427,0.84519 -0.13788,1.80036 -0.14652,2.72867 0.28556,0.94181 -0.5207,1.58067 -0.6014,2.39346 0.23898,0.96089 -0.68567,1.78617 -1.587209,1.90575 -1.24447,0.52081 -2.283104,1.54003 -3.558044,1.9356 -1.344131,0.57666 -2.795393,-1.68296 -0.796199,-1.68651 1.536659,-0.49468 0.166148,-1.02758 -0.51067,-1.52742 -0.407021,-1.60054 1.433352,0.60649 1.354994,-0.75812 -0.602715,-0.92485 -1.7089,-1.67289 -1.608037,-2.88987 -0.463161,-0.72703 -1.109832,-1.95462 -1.584276,-2.2637 -0.390095,0.76027 0.02167,1.7307 -0.257433,2.5575 0.885099,1.05925 0.460115,0.90039 -0.425014,1.17195 -0.756829,0.63324 -1.092046,1.95916 0.239011,1.26308 1.20091,0.93608 -1.43172,1.73343 -0.630043,2.86196 0.265663,0.63206 1.179751,0.83336 0.928573,1.99762 0.120752,0.93383 -1.284406,0.933 -1.888092,1.38024 -1.202289,1.03249 -1.479345,-1.20028 -0.05883,-0.98589 0.875327,0.0874 1.848157,-1.46488 0.471711,-1.23139 -1.058278,0.76919 -2.039887,-1.48962 -1.121162,-1.76291 1.418757,1.05958 0.907381,-0.87067 -0.02436,-1.12665 -0.652878,-0.74541 -0.56917,-1.76824 -0.521349,-2.64705 -0.154217,-1.43732 -0.905341,-1.5294 -0.960041,-0.0374 -0.804217,0.73666 -1.099834,1.54837 -0.484614,2.1236 -0.605975,0.58167 -2.024795,0.788 -0.882681,1.7921 -0.112937,0.93168 0.246472,1.97337 -1.190749,2.20087 -0.03549,0.65513 0.674235,0.8345 -0.217451,1.57311 0.630702,0.40471 2.540125,-0.53944 1.722857,1.16839 -0.357069,1.12138 -1.753409,0.89981 -2.434933,1.6737 -0.850207,0.5408 -2.114845,1.47317 -0.502753,1.96569 1.886696,0.97057 4.074045,0.95176 6.112787,1.41335 3.102493,0.42815 6.207278,0.92348 9.332588,1.13662 3.156339,0.0764 6.322259,0.51552 9.467549,0.0654 0.33117,-1.10864 -1.44657,-3.7982 -0.0224,-5.38086 0.84866,-1.19297 0.98143,-2.96403 2.49269,-3.61115 0.61597,-0.30239 2.80917,-0.12247 1.44179,0.68508 -0.61634,0.60703 -1.80989,1.07967 -1.59498,2.10962 0.54241,0.88529 1.74813,0.54517 2.5962,0.95231 1.24678,0.22669 2.56358,0.011 3.80223,0.42627 0.85329,0.28287 1.78947,0.4133 2.59055,0.79221 -0.57167,0.67754 -1.7488,0.90037 -2.41584,1.60685 -0.67064,0.44335 -1.49773,1.33501 -0.80627,2.10975 1.30031,0.26926 2.53758,1.201 3.89998,0.8951 2.2646,0.17294 -1.4299,-1.05722 -2.16074,-1.04536 -1.01648,-0.65047 0.5703,-1.35486 1.19582,-1.53259 0.88832,-0.49328 2.137,-0.75794 2.6101,-1.65584 -0.92217,-1.99992 -3.28347,-2.33539 -5.13801,-2.99366 -0.95787,-0.33586 -2.04779,0.0278 -2.96426,-0.32486 0.42054,-0.79916 1.58725,-1.20997 2.25441,-1.90443 1.90495,-0.57385 3.88171,0.26676 5.55862,1.15249 1.22447,0.59026 2.23494,1.61288 3.62673,1.82373 1.88068,0.82604 3.80982,1.65766 5.46017,2.88754 0.69582,0.29133 -1.14425,-1.43561 -1.73426,-1.68352 -0.9555,-0.56996 -1.72373,-1.41058 -2.79721,-1.77543 -1.43844,-1.24701 -3.30442,-1.79463 -4.83152,-2.91775 -1.02473,-0.71477 -2.10258,-1.33469 -3.32925,-1.59054 -1.03187,-0.53719 -2.74835,-0.97586 -2.46722,-2.45624 -0.0203,-1.8269 -0.31021,-3.60837 -0.20366,-5.43447 -1.04312,-0.7308 -0.53029,-1.26753 -0.29054,-2.21851 -0.38665,-1.17635 1.56099,-1.35778 1.09709,-2.35756 -1.07153,-0.56168 -1.6044,-1.68122 -2.08476,-2.73414 -0.27607,-1.14375 -1.26981,0.62966 -1.29306,1.15084 0.28595,1.07659 -1.05136,1.50925 -1.60349,2.21575 -1.66613,1.24495 1.87366,0.89755 0.4688,1.49008 -1.18993,0.62468 -1.64671,-0.51444 -1.51852,-1.51416 0.0245,-1.07277 -0.0797,-2.03161 -0.37859,-2.92377 0.86136,0.10524 2.21473,-0.58843 1.22194,-1.52169 -0.82314,-0.68032 -0.75594,-1.78902 -1.15034,-2.70871 -0.27499,-1.7761 -0.74108,-3.55779 -0.66396,-5.36407 -0.31593,-0.65027 -0.20006,-1.66847 -0.77209,-2.11062 z m 2.31302,21.73792 c 1.11102,0.0904 1.42014,1.16064 1.2704,2.11233 0.18885,0.91459 -0.12373,1.86773 -1.22972,1.64818 -0.99273,0.37356 -1.54971,-0.55281 -1.31071,-1.44156 -0.11913,-1.00352 0.23876,-1.99389 1.27003,-2.31895 z"
     inkscape:path-effect="#path-effect28"
     inkscape:original-d="m 109.34733,187.11079 c -0.66786,0.73609 -0.41144,1.94914 -0.69027,2.93888 -0.36215,2.16419 -0.98657,4.27585 -1.04716,6.48319 -0.31731,0.98454 -1.38224,1.43447 -1.92226,2.25785 0.25501,0.56957 1.62003,0.58696 1.40461,1.36233 0.1314,1.03368 0.29188,2.24856 -0.65264,2.96861 -1.21281,0.26501 -1.95301,-0.89913 -2.75941,-1.57557 -0.21133,-0.73529 -0.77415,-2.31291 -1.69704,-1.89427 -0.43928,0.7837 -0.81401,1.71864 -1.43147,2.37428 -0.755396,0.20127 -1.558957,2.27623 -0.23071,1.89265 1.19115,0.0337 0.61287,1.64195 1.29201,2.26251 -0.22427,0.84519 -0.13788,1.80036 -0.14652,2.72867 0.28556,0.94181 -0.5207,1.58067 -0.6014,2.39346 0.23898,0.96089 -0.68567,1.78617 -1.587209,1.90575 -1.24447,0.52081 -2.283104,1.54003 -3.558044,1.9356 -1.344131,0.57666 -2.795393,-1.68296 -0.796199,-1.68651 1.536659,-0.49468 0.166148,-1.02758 -0.51067,-1.52742 -0.407021,-1.60054 1.433352,0.60649 1.354994,-0.75812 -0.602715,-0.92485 -1.7089,-1.67289 -1.608037,-2.88987 -0.463161,-0.72703 -1.109832,-1.95462 -1.584276,-2.2637 -0.390095,0.76027 0.02167,1.7307 -0.257433,2.5575 0.885099,1.05925 0.460115,0.90039 -0.425014,1.17195 -0.756829,0.63324 -1.092046,1.95916 0.239011,1.26308 1.20091,0.93608 -1.43172,1.73343 -0.630043,2.86196 0.265663,0.63206 1.179751,0.83336 0.928573,1.99762 0.120752,0.93383 -1.284406,0.933 -1.888092,1.38024 -1.202289,1.03249 -1.479345,-1.20028 -0.05883,-0.98589 0.875327,0.0874 1.848157,-1.46488 0.471711,-1.23139 -1.058278,0.76919 -2.039887,-1.48962 -1.121162,-1.76291 1.418757,1.05958 0.907381,-0.87067 -0.02436,-1.12665 -0.652878,-0.74541 -0.56917,-1.76824 -0.521349,-2.64705 -0.154217,-1.43732 -0.905341,-1.5294 -0.960041,-0.0374 -0.804217,0.73666 -1.099834,1.54837 -0.484614,2.1236 -0.605975,0.58167 -2.024795,0.788 -0.882681,1.7921 -0.112937,0.93168 0.246472,1.97337 -1.190749,2.20087 -0.03549,0.65513 0.674235,0.8345 -0.217451,1.57311 0.630702,0.40471 2.540125,-0.53944 1.722857,1.16839 -0.357069,1.12138 -1.753409,0.89981 -2.434933,1.6737 -0.850207,0.5408 -2.114845,1.47317 -0.502753,1.96569 1.886696,0.97057 4.074045,0.95176 6.112787,1.41335 3.102493,0.42815 6.207278,0.92348 9.332588,1.13662 3.156339,0.0764 6.322259,0.51552 9.467549,0.0654 0.33117,-1.10864 -1.44657,-3.7982 -0.0224,-5.38086 0.84866,-1.19297 0.98143,-2.96403 2.49269,-3.61115 0.61597,-0.30239 2.80917,-0.12247 1.44179,0.68508 -0.61634,0.60703 -1.80989,1.07967 -1.59498,2.10962 0.54241,0.88529 1.74813,0.54517 2.5962,0.95231 1.24678,0.22669 2.56358,0.011 3.80223,0.42627 0.85329,0.28287 1.78947,0.4133 2.59055,0.79221 -0.57167,0.67754 -1.7488,0.90037 -2.41584,1.60685 -0.67064,0.44335 -1.49773,1.33501 -0.80627,2.10975 1.30031,0.26926 2.53758,1.201 3.89998,0.8951 2.2646,0.17294 -1.4299,-1.05722 -2.16074,-1.04536 -1.01648,-0.65047 0.5703,-1.35486 1.19582,-1.53259 0.88832,-0.49328 2.137,-0.75794 2.6101,-1.65584 -0.92217,-1.99992 -3.28347,-2.33539 -5.13801,-2.99366 -0.95787,-0.33586 -2.04779,0.0278 -2.96426,-0.32486 0.42054,-0.79916 1.58725,-1.20997 2.25441,-1.90443 1.90495,-0.57385 3.88171,0.26676 5.55862,1.15249 1.22447,0.59026 2.23494,1.61288 3.62673,1.82373 1.88068,0.82604 3.80982,1.65766 5.46017,2.88754 0.69582,0.29133 -1.14425,-1.43561 -1.73426,-1.68352 -0.9555,-0.56996 -1.72373,-1.41058 -2.79721,-1.77543 -1.43844,-1.24701 -3.30442,-1.79463 -4.83152,-2.91775 -1.02473,-0.71477 -2.10258,-1.33469 -3.32925,-1.59054 -1.03187,-0.53719 -2.74835,-0.97586 -2.46722,-2.45624 -0.0203,-1.8269 -0.31021,-3.60837 -0.20366,-5.43447 -1.04312,-0.7308 -0.53029,-1.26753 -0.29054,-2.21851 -0.38665,-1.17635 1.56099,-1.35778 1.09709,-2.35756 -1.07153,-0.56168 -1.6044,-1.68122 -2.08476,-2.73414 -0.27607,-1.14375 -1.26981,0.62966 -1.29306,1.15084 0.28595,1.07659 -1.05136,1.50925 -1.60349,2.21575 -1.66613,1.24495 1.87366,0.89755 0.4688,1.49008 -1.18993,0.62468 -1.64671,-0.51444 -1.51852,-1.51416 0.0245,-1.07277 -0.0797,-2.03161 -0.37859,-2.92377 0.86136,0.10524 2.21473,-0.58843 1.22194,-1.52169 -0.82314,-0.68032 -0.75594,-1.78902 -1.15034,-2.70871 -0.27499,-1.7761 -0.74108,-3.55779 -0.66396,-5.36407 -0.31593,-0.65027 -0.20006,-1.66847 -0.77209,-2.11062 z m 2.31302,21.73792 c 1.11102,0.0904 1.42014,1.16064 1.2704,2.11233 0.18885,0.91459 -0.12373,1.86773 -1.22972,1.64818 -0.99273,0.37356 -1.54971,-0.55281 -1.31071,-1.44156 -0.11913,-1.00352 0.23876,-1.99389 1.27003,-2.31895 z"
     transform="matrix(3.5009249,0,0,3.5009249,-292.54312,-651.56818)" /><path
     id="path1"
     style="fill:#000000;stroke-width:0.241873"
     d="M 145.255,-1.203003e-5 C 143.73927,0.03328797 142.58607,0.96217797 141.98029,2.3402579 c -1.25435,1.62978 -2.10116,3.44518 -2.83718,5.35709 -0.84,1.55397 -1.66638,2.9735701 -2.92871,4.3892801 -1.40569,1.67276 -2.1131,4.13228 -4.29203,5.04863 -1.82427,1.33838 -4.88135,1.60737 -5.64569,-1.02499 -0.21932,-1.82146 -1.38535,-4.79479 -3.48643,-4.30874 -1.96289,1.62692 -4.4541,2.85957 -7.0383,2.90163 -2.04161,-0.70038 -3.74937,0.90655 -5.13484,2.15938 -2.15646,1.08984 -0.18558,2.93975 1.43187,2.86374 2.01669,1.35597 1.95406,-1.89238 3.81686,-2.22781 1.30018,-0.17394 2.69551,3.00491 0.21183,2.71128 -1.60178,-0.65592 -2.97749,0.32133 -3.35467,1.7713 0.94226,1.7596 3.46917,0.51174 4.72804,-0.31523 1.92164,-0.0365 4.85844,-1.00861 6.18842,0.65119 1.21867,1.57201 0.12421,3.05688 -0.95423,4.36367 -1.08773,1.47571 -3.38405,-1.55952 -3.47735,0.95474 -0.0552,1.3332 -0.31775,2.59995 -0.8185,3.68149 -0.43084,1.03041 -0.49521,2.62966 0.83526,2.78573 1.4946,-0.7317 2.2282,-2.45441 3.80098,-2.92186 1.42098,-0.87219 3.14191,-0.96867 4.7727,-1.4998 1.26333,-0.9989 3.10314,-1.27108 4.36362,5e-5 1.18908,1.34872 3.43532,0.75323 4.90925,0.74972 0.96544,-1.22955 -1.61887,-2.57671 -0.32682,-3.8813 1.33021,-1.04164 2.34243,1.02657 3.27304,1.76278 1.66826,1.08721 3.78601,0.59803 5.64446,0.34605 1.86194,-0.2767 3.586,-0.85833 4.90926,-2.25004 0.25644,-2.26731 -2.16974,0.15181 -3.20484,0.20468 -2.17318,0.67633 -4.45815,-0.63979 -5.60984,-2.47666 -1.05416,-1.83225 -3.21823,-2.82117 -3.86715,-4.8868 -0.25082,-1.28867 1.96868,-0.52705 1.94346,-2.012 0.51579,-1.85015 2.91854,-2.69441 4.26108,-1.19276 0.81583,1.03089 1.91462,3.36117 3.54542,1.90946 1.12439,-1.33604 2.10929,-2.757 2.93176,-4.29559 0.76714,-2.04415 3.29412,-2.06108 5.04531,-1.49988 0.77891,0.11888 4.41344,0.49938 2.86373,-0.88671 -1.7637,-2.0035201 -3.77567,-3.7477101 -5.79552,-5.4544301 -1.39914,-1.61159 -2.69103,-3.16493 -4.92343,-3.42639 -1.32293,-0.31432 -1.83848,-1.51899993 -2.50611,-2.39116993003 z" /></svg>
